<?xml version="1.0" encoding="UTF-8" standalone="no"?>
<!-- Created with Inkscape (http://www.inkscape.org/) -->

<svg
   xmlns:dc="http://purl.org/dc/elements/1.1/"
   xmlns:cc="http://creativecommons.org/ns#"
   xmlns:rdf="http://www.w3.org/1999/02/22-rdf-syntax-ns#"
   xmlns:svg="http://www.w3.org/2000/svg"
   xmlns="http://www.w3.org/2000/svg"
   xmlns:sodipodi="http://sodipodi.sourceforge.net/DTD/sodipodi-0.dtd"
   xmlns:inkscape="http://www.inkscape.org/namespaces/inkscape"
   width="210mm"
   height="297mm"
   viewBox="0 0 210 297"
   version="1.1"
   id="svg8"
   inkscape:version="0.92.3 (2405546, 2018-03-11)"
   sodipodi:docname="guidofav.svg"
   inkscape:export-filename="/home/anderson/Templates/Prof Guido Gym/img/guidofav.png"
   inkscape:export-xdpi="96"
   inkscape:export-ydpi="96">
  <defs
     id="defs2" />
  <sodipodi:namedview
     id="base"
     pagecolor="#ffffff"
     bordercolor="#666666"
     borderopacity="1.0"
     inkscape:pageopacity="0.0"
     inkscape:pageshadow="2"
     inkscape:zoom="7.1172915"
     inkscape:cx="-3921.2765"
     inkscape:cy="-1450.0073"
     inkscape:document-units="mm"
     inkscape:current-layer="layer1"
     showgrid="false"
     showborder="false"
     inkscape:window-width="1366"
     inkscape:window-height="717"
     inkscape:window-x="0"
     inkscape:window-y="25"
     inkscape:window-maximized="1" />
  <metadata
     id="metadata5">
    <rdf:RDF>
      <cc:Work
         rdf:about="">
        <dc:format>image/svg+xml</dc:format>
        <dc:type
           rdf:resource="http://purl.org/dc/dcmitype/StillImage" />
        <dc:title></dc:title>
      </cc:Work>
    </rdf:RDF>
  </metadata>
  <g
     inkscape:label="Layer 1"
     inkscape:groupmode="layer"
     id="layer1">
    <rect
       style="fill:#000000;fill-opacity:1;stroke:#ffffff;stroke-width:0.01441046;stroke-miterlimit:4;stroke-dasharray:none;stroke-opacity:1"
       id="rect225"
       width="19.985588"
       height="19.98559"
       x="-1047.4972"
       y="670.65497" />
    <path
       style="fill:#ffffff;stroke-width:0.01330798"
       d="m -1032.8996,690.39538 c -0.1486,-0.01 -0.4734,-0.104 -0.7043,-0.20546 -0.2768,-0.12171 -0.6879,-0.37721 -0.9059,-0.563 -0.065,-0.0561 -0.1378,-0.11147 -0.1596,-0.12295 -0.064,-0.0338 -0.1979,-0.0361 -0.3272,-0.005 -0.096,0.0226 -0.5388,0.0896 -0.7576,0.11435 -0.1019,0.0116 -0.3215,0.0327 -0.4192,0.0405 -0.052,0.004 -0.1171,0.01 -0.1464,0.0132 -0.1804,0.02 -0.6765,0.0503 -0.9781,0.0599 -0.338,0.0107 -2.0072,0.006 -2.076,-0.005 -0.019,-0.003 -0.1296,-0.01 -0.2473,-0.0133 -0.1176,-0.004 -0.2734,-0.0137 -0.346,-0.0214 -0.072,-0.008 -0.1919,-0.02 -0.2651,-0.0275 -0.3164,-0.0324 -0.5002,-0.0661 -0.8052,-0.14803 l -0.1529,-0.0411 -0.2489,0.024 c -0.2031,0.0195 -0.3108,0.0223 -0.5856,0.015 -0.1851,-0.004 -0.3546,-0.0113 -0.3766,-0.0141 -0.021,-0.003 -0.082,-0.01 -0.1331,-0.014 -0.1309,-0.0123 -0.3843,-0.0448 -0.4791,-0.0614 -0.7867,-0.13777 -1.6007,-0.47435 -2.0693,-0.8558 -0.2924,-0.23791 -0.5272,-0.46574 -0.6171,-0.59893 -0.037,-0.0533 -0.045,-0.12746 -0.027,-0.21931 l 0.011,-0.0415 0.047,0.0418 c 0.027,0.023 0.093,0.062 0.1481,0.0868 0.056,0.0247 0.271,0.13107 0.4797,0.23634 0.6406,0.3233 0.9014,0.42031 1.4129,0.52558 0.1911,0.0393 0.641,0.10368 0.7463,0.10669 0.013,4e-4 0.024,0.006 0.024,0.0123 0,0.0141 -0.042,0.028 -0.1063,0.0353 -0.1088,0.0123 -0.2415,0.0492 -0.2492,0.069 -0.012,0.0303 0.027,0.0531 0.1592,0.094 0.064,0.0199 0.1164,0.04 0.1165,0.045 0,0.0128 -0.076,0.0353 -0.1461,0.0431 -0.076,0.009 -0.1857,0.0297 -0.2163,0.0414 -0.1329,0.0514 0.298,0.16516 0.8816,0.23286 0.3008,0.0349 0.8132,0.0477 1.1153,0.0278 0.4359,-0.0286 0.7358,-0.0787 1.2167,-0.2026 l 0.1694,-0.0437 0.1932,0.0171 c 0.1132,0.01 0.2578,0.0136 0.3495,0.009 0.086,-0.004 0.3121,-0.0107 0.5024,-0.0129 0.2659,-0.004 0.3917,-0.0113 0.5427,-0.0335 0.2496,-0.0366 0.7999,-0.17298 1.2207,-0.3027 0.1794,-0.0553 0.332,-0.10186 0.3394,-0.10347 0.011,-10e-4 0.048,-0.0134 0.09,-0.0263 0.045,-0.0135 0.131,-0.0247 0.2062,-0.0266 0.1999,-0.005 0.2266,-0.0132 0.4677,-0.14089 0.4497,-0.2382 0.7851,-0.51406 1.1036,-0.90797 0.1247,-0.15425 0.1569,-0.20656 0.2786,-0.45241 0.1234,-0.24893 0.1455,-0.31767 0.1212,-0.37662 -0.011,-0.0218 -0.015,-0.0441 -0.014,-0.0496 0,-0.005 0,-0.01 -0.011,-0.01 -0.023,0 -0.015,-0.0894 0.023,-0.24384 0.03,-0.12186 0.035,-0.18122 0.036,-0.3284 0,-0.15687 0,-0.18632 -0.027,-0.23214 -0.041,-0.0793 -0.086,-0.10658 -0.1723,-0.10529 -0.1009,10e-4 -0.258,0.08 -0.5587,0.27983 -0.3063,0.20364 -0.4943,0.31492 -0.7371,0.43624 -0.268,0.13394 -0.3512,0.16856 -0.5737,0.23861 -0.6319,0.19896 -1.3454,0.30227 -1.8032,0.2611 -0.385,-0.0346 -0.4655,-0.0502 -0.479,-0.0929 -0.011,-0.0327 0.011,-0.0702 0.053,-0.0981 0.044,-0.0291 0.071,-0.0275 0.081,0.004 0.011,0.0147 0.029,0.0424 0.055,0.0617 0.045,0.0343 0.049,0.0349 0.202,0.0284 0.1926,-0.009 0.2815,-0.0396 0.2823,-0.0996 0,-0.0245 -0.054,-0.0703 -0.1096,-0.0929 -0.027,-0.0112 -0.049,-0.026 -0.049,-0.033 0,-0.008 -0.011,-0.009 -0.016,-0.003 -0.011,0.005 -0.012,0.004 -0.011,-0.001 0.011,-0.006 0.018,-0.0127 0.03,-0.0142 0.011,-10e-4 0.047,-0.012 0.083,-0.0233 0.035,-0.0113 0.1536,-0.0394 0.2634,-0.0624 0.218,-0.0457 0.5378,-0.13526 0.7052,-0.19746 0.1858,-0.069 0.6016,-0.26455 0.7831,-0.36831 0.2636,-0.15075 0.4103,-0.26053 0.5944,-0.44484 0.1786,-0.17893 0.2397,-0.26714 0.2722,-0.39232 0.024,-0.0911 0.027,-0.30392 0.011,-0.43304 -0.013,-0.0806 -0.071,-0.32756 -0.088,-0.37262 -0.011,-0.0109 -0.011,-0.033 -0.011,-0.0488 -0.011,-0.0737 0.079,0.0349 0.2262,0.29154 0.091,0.15852 0.1465,0.17889 0.1781,0.0652 0.044,-0.15895 -0.016,-0.35546 -0.2044,-0.667 -0.087,-0.14456 -0.3161,-0.37672 -0.4764,-0.48352 -0.4161,-0.27711 -0.9501,-0.41392 -1.4447,-0.37013 -0.7592,0.0672 -1.442,0.31922 -1.9576,0.72247 -0.1303,0.10196 -0.3627,0.32875 -0.5225,0.51017 -0.032,0.0366 -0.062,0.0695 -0.066,0.0732 -0.011,0.004 -0.061,0.0759 -0.1265,0.16054 -0.065,0.0846 -0.1488,0.19242 -0.1853,0.23953 -0.037,0.0471 -0.09,0.11861 -0.1183,0.15886 -0.064,0.0899 -0.2192,0.28027 -0.2472,0.30231 -0.03,0.0241 -0.047,0.0123 -0.043,-0.03 0,-0.0207 0.043,-0.15373 0.089,-0.29558 0.047,-0.14185 0.103,-0.33086 0.1251,-0.42004 0.1063,-0.43339 0.2117,-1.2625 0.2731,-2.1517 0.018,-0.25546 0.028,-0.4689 0.054,-1.07795 0.011,-0.19857 0.023,-0.27385 0.099,-0.519 0.1484,-0.47653 0.3769,-1.02148 0.5443,-1.29753 0.1179,-0.1944 0.1316,-0.22244 0.1479,-0.30303 0.022,-0.1068 0.022,-0.24291 0,-0.26842 -0.078,-0.0948 -0.2208,0.10789 -0.5879,0.83761 -0.081,0.16102 -0.1633,0.3182 -0.1826,0.3493 -0.034,0.0549 -0.067,0.0736 -0.07,0.0399 -0.011,-0.0882 -0.011,-0.11873 0.011,-0.17633 0.011,-0.0366 0.016,-0.0816 0.019,-0.0998 0.013,-0.069 0.048,-0.19743 0.088,-0.32604 0.023,-0.0732 0.043,-0.14317 0.045,-0.15547 0.011,-0.05 0.09,-0.23879 0.159,-0.36867 0.091,-0.1737 0.2136,-0.3583 0.3428,-0.51814 0.056,-0.0682 0.1073,-0.14433 0.115,-0.16914 0.021,-0.0669 -0.015,-0.13685 -0.1467,-0.27914 -0.061,-0.0659 -0.1365,-0.15907 -0.1676,-0.20718 -0.077,-0.11895 -0.087,-0.12584 -0.1837,-0.12341 -0.103,0.002 -0.4109,0.0703 -0.6599,0.1452 -0.2577,0.0775 -0.3813,0.10529 -0.618,0.13918 -0.22,0.0315 -0.2852,0.0554 -0.3559,0.12981 -0.089,0.094 -0.434,0.54146 -0.9096,1.18072 -0.065,0.0878 -0.1225,0.16269 -0.127,0.16635 -0.026,0.0211 -0.3369,0.46154 -0.3384,0.47909 0,0.004 -0.026,0.0445 -0.057,0.0908 -0.031,0.0463 -0.056,0.087 -0.056,0.0906 0,0.0135 -0.1367,0.21878 -0.1421,0.21339 0,-0.003 0,-0.0457 0.015,-0.0946 0.012,-0.0488 0.022,-0.10089 0.022,-0.11555 0,-0.0422 0.055,-0.15862 0.07,-0.14911 0.011,0.005 0.011,0.002 0.011,-0.008 -0.011,-0.01 0.037,-0.10078 0.1073,-0.22497 0.064,-0.1148 0.1279,-0.2297 0.1414,-0.25533 0.013,-0.0257 0.055,-0.0935 0.09,-0.15074 0.036,-0.0573 0.067,-0.10626 0.067,-0.10885 0,-0.002 0.037,-0.06 0.084,-0.12756 0.046,-0.0676 0.103,-0.15335 0.1281,-0.19058 0.069,-0.10304 0.4022,-0.55721 0.5145,-0.69984 0.1671,-0.21208 0.1856,-0.28353 0.096,-0.36861 -0.039,-0.0362 -0.2146,-0.15039 -0.2323,-0.15039 0,0 -0.049,-0.0311 -0.1019,-0.069 -0.053,-0.038 -0.1227,-0.0796 -0.1567,-0.0925 -0.098,-0.0372 -0.1459,-0.0616 -0.7302,-0.37097 -0.2139,-0.11325 -0.3422,-0.1814 -0.519,-0.27577 -0.047,-0.0254 -0.1846,-0.0973 -0.3044,-0.1599 -0.2289,-0.11951 -0.3908,-0.23494 -0.4392,-0.31334 -0.024,-0.0378 -0.103,-0.339 -0.1294,-0.48839 0,-0.0184 -0.015,-0.0782 -0.026,-0.13309 -0.011,-0.0548 -0.035,-0.18065 -0.054,-0.27946 -0.018,-0.0989 -0.052,-0.24853 -0.073,-0.33271 -0.048,-0.1913 -0.071,-0.33322 -0.056,-0.34839 0.035,-0.0352 0.1099,0.16221 0.142,0.37501 0.012,0.0769 0.027,0.1619 0.033,0.18897 0.011,0.027 0.011,0.0526 0.011,0.0566 -0.011,0.004 0,0.008 0.011,0.008 0.011,0 0.014,0.0191 0.016,0.0423 0,0.0233 0.011,0.0502 0.018,0.0599 0.011,0.01 0.011,0.0175 0.011,0.0175 -0.011,0 0,0.0315 0.014,0.0699 0.012,0.0384 0.032,0.11479 0.045,0.16967 0.1,0.41159 0.1099,0.44373 0.1545,0.47892 0.024,0.0186 0.054,0.0268 0.099,0.0268 0.059,0 0.073,0.008 0.1501,0.0702 0.1392,0.11481 0.7225,0.42828 0.9502,0.51074 0.09,0.0326 0.1533,0.0668 0.2266,0.12247 0.056,0.0425 0.1669,0.12471 0.2465,0.18269 0.3406,0.24771 0.355,0.25503 0.4178,0.21108 0.049,-0.035 0.073,-0.0959 0.064,-0.16803 -0.011,-0.0744 -0.095,-0.28632 -0.2222,-0.54315 -0.2173,-0.44041 -0.2527,-0.51857 -0.2799,-0.61882 -0.035,-0.13018 -0.056,-0.17094 -0.1502,-0.30275 -0.041,-0.0568 -0.071,-0.10314 -0.067,-0.10314 0,0 -0.015,-0.0269 -0.042,-0.0597 -0.083,-0.10099 -0.091,-0.0569 -0.039,0.18974 0.043,0.20285 0.062,0.25166 0.1532,0.39568 0.079,0.12643 0.1755,0.38176 0.1755,0.46851 0,0.0939 -0.093,0.16217 -0.2363,0.1737 -0.098,0.008 -0.1111,-0.003 -0.1954,-0.15646 -0.03,-0.0548 -0.1041,-0.18665 -0.1637,-0.29277 -0.06,-0.10615 -0.1908,-0.3445 -0.2909,-0.5297 -0.3356,-0.62094 -0.7602,-1.31435 -0.9087,-1.48446 -0.1421,-0.16281 -0.1596,-0.18936 -0.1913,-0.29178 -0.051,-0.16105 -0.038,-0.24718 0.048,-0.33265 0.042,-0.042 0.092,-0.0465 0.134,-0.0118 0.015,0.013 0.07,0.0861 0.1209,0.16258 0.05,0.0764 0.1126,0.16897 0.1371,0.20557 0.1863,0.27793 0.3043,0.4192 0.3506,0.4192 0.024,0 0.025,-0.008 0.018,-0.0898 -0.011,-0.0771 -0.075,-0.32272 -0.1159,-0.40921 -0.011,-0.0147 -0.042,-0.10142 -0.078,-0.19297 -0.036,-0.0915 -0.1,-0.25019 -0.1425,-0.35266 -0.094,-0.2296 -0.099,-0.27892 -0.033,-0.40589 0.097,-0.18931 0.1723,-0.27946 0.235,-0.27946 0.063,0 0.09,0.0399 0.3316,0.48082 0.1169,0.21364 0.2309,0.42193 0.2532,0.46285 0.048,0.0879 0.1791,0.33763 0.4121,0.78636 0.21,0.40472 0.2979,0.54563 0.3401,0.54563 0.018,0 0.024,-0.058 0.011,-0.13761 -0.028,-0.18038 -0.103,-0.42882 -0.4249,-1.39946 -0.2971,-0.89686 -0.3457,-1.05446 -0.3457,-1.12167 0,-0.0449 0,-0.046 0.025,-0.0245 0.055,0.0492 0.258,0.48468 0.3657,0.7819 0.025,0.0686 0.064,0.1696 0.088,0.22448 0.041,0.0949 0.3513,0.90129 0.3743,0.97149 0.011,0.0184 0.059,0.16202 0.1182,0.3194 0.1179,0.31433 0.1922,0.52872 0.2467,0.71197 0.019,0.0659 0.056,0.16479 0.079,0.21983 0.05,0.11586 0.1934,0.50726 0.1934,0.53021 0,0.009 0.011,0.026 0.013,0.0386 0.011,0.0127 0.078,0.21996 0.1598,0.46057 0.08,0.24061 0.1565,0.45742 0.168,0.48182 0.014,0.029 0.042,0.054 0.078,0.0722 0.056,0.0273 0.061,0.0275 0.2084,0.008 0.083,-0.0115 0.1836,-0.0265 0.2239,-0.0334 0.041,-0.008 0.1152,-0.0199 0.1664,-0.0288 0.052,-0.009 0.1019,-0.0173 0.1131,-0.0185 0.011,-10e-4 0.047,-0.006 0.079,-0.0108 0.033,-0.004 0.09,-0.0113 0.1263,-0.0145 0.037,-0.003 0.1135,-0.0157 0.1707,-0.0275 0.1353,-0.028 0.1589,-0.0199 0.3315,0.11555 0.075,0.0588 0.1891,0.14293 0.2532,0.18683 0.1225,0.0839 0.1829,0.14377 0.1828,0.18096 0,0.0122 -0.019,0.0357 -0.044,0.0523 -0.096,0.0648 -0.1041,0.0795 -0.097,0.15301 0.011,0.0514 0.018,0.0816 0.057,0.12736 0.045,0.0555 0.089,0.0863 0.3429,0.24422 0.062,0.0385 0.1677,0.13306 0.3194,0.28558 0.2347,0.23606 0.2834,0.2718 0.4328,0.31683 0.1469,0.0442 0.4481,0.0408 0.6455,-0.008 0.087,-0.0211 0.3899,-0.14319 0.519,-0.20879 0.3838,-0.19502 0.5488,-0.38052 0.5987,-0.67286 0.026,-0.152 0.025,-0.18904 -0.011,-0.25695 -0.047,-0.10325 -0.2229,-0.18968 -0.3876,-0.19024 -0.1199,-4.1e-4 -0.1325,-0.0529 -0.03,-0.12346 0.094,-0.0648 0.3007,-0.18203 0.3477,-0.19755 0.044,-0.0148 0.048,-0.0135 0.084,0.0295 0.035,0.0442 0.039,0.045 0.1342,0.0426 0.055,-10e-4 0.1354,-0.0145 0.1838,-0.0297 0.047,-0.015 0.1031,-0.0275 0.1241,-0.0275 0.044,-2e-4 0.043,0.01 -0.026,0.15056 -0.074,0.15176 -0.099,0.23097 -0.099,0.31469 0,0.0963 0.015,0.14049 0.07,0.1972 0.094,0.0978 0.2671,0.10551 0.5092,0.0228 0.077,-0.0265 0.1541,-0.0463 0.1699,-0.044 0.035,0.005 0.044,0.0477 0.022,0.12573 -0.024,0.0844 -0.064,0.11728 -0.1758,0.14398 -0.057,0.0136 -0.1565,0.0547 -0.2437,0.10088 -0.082,0.0428 -0.1974,0.0962 -0.2587,0.11852 -0.1592,0.0581 -0.1963,0.0865 -0.2187,0.16712 -0.011,0.0366 -0.018,0.0786 -0.019,0.0932 -0.011,0.15517 0.015,0.24147 0.093,0.40564 0.03,0.062 0.058,0.11598 0.063,0.11978 0.016,0.0127 0.1205,0.23262 0.127,0.26952 0,0.0201 0.011,0.0417 0.014,0.0483 0.011,0.006 0.011,0.0411 0.015,0.0767 0.011,0.0946 0.054,0.12844 0.149,0.11817 0.078,-0.009 0.1187,-0.0234 0.193,-0.0712 0.045,-0.0291 0.056,-0.0306 0.109,-0.0171 0.079,0.0199 0.1534,0.0188 0.2738,-0.004 0.1434,-0.0271 0.1803,-0.0323 0.2993,-0.042 0.137,-0.0111 0.2154,0.0152 0.3911,0.13115 0.07,0.0465 0.1618,0.10357 0.203,0.1269 0.082,0.0461 0.1081,0.0716 0.1138,0.10861 0.011,0.0346 -0.056,0.089 -0.1126,0.10089 -0.027,0.005 -0.053,0.0112 -0.056,0.0121 -0.066,0.0176 -0.1211,0.028 -0.213,0.04 -0.041,0.005 -0.1091,0.0176 -0.1529,0.0275 -0.044,0.01 -0.098,0.0213 -0.1199,0.0251 -0.021,0.004 -0.1177,0.0283 -0.2128,0.0541 -0.096,0.0259 -0.2161,0.0585 -0.2686,0.0726 -0.1284,0.0343 -0.531,0.087 -0.663,0.0868 -0.1764,-4e-4 -0.2994,-0.0192 -0.3793,-0.0584 -0.1842,-0.0903 -0.6674,-0.36043 -0.9648,-0.53966 -0.052,-0.0309 -0.207,-0.11812 -0.346,-0.19388 -0.1391,-0.0758 -0.2661,-0.14777 -0.2823,-0.16 -0.016,-0.0122 -0.061,-0.0605 -0.099,-0.10733 -0.1726,-0.21132 -0.2199,-0.24251 -0.3655,-0.2417 -0.1494,7.7e-4 -0.2391,0.0334 -0.3181,0.11514 -0.1485,0.15387 -0.2924,0.38267 -0.3723,0.59196 -0.1548,0.40519 -0.2588,0.82344 -0.3328,1.33928 -0.033,0.23231 -0.079,0.67905 -0.092,0.89163 -0.011,0.0659 -0.011,0.17367 -0.014,0.23955 0,0.0659 -0.013,0.32338 -0.02,0.57224 -0.012,0.41758 -0.035,0.7469 -0.067,0.94486 -0.017,0.10518 -0.016,0.24148 0,0.2737 0.015,0.0291 0.065,0.0338 0.1102,0.0107 0.016,-0.009 0.094,-0.0702 0.1755,-0.13727 0.2583,-0.21539 0.4342,-0.32953 0.7318,-0.47518 0.2996,-0.14657 0.5336,-0.226 0.8518,-0.28912 0.2087,-0.0414 0.2972,-0.048 0.6388,-0.0477 0.4224,4.1e-4 0.6893,0.0406 1.0579,0.15925 0.2279,0.0733 0.2559,0.0787 0.3121,0.0602 0.041,-0.0137 0.1355,-0.10762 0.1945,-0.19451 0.045,-0.0666 0.2045,-0.23264 0.3585,-0.37418 0.2507,-0.23046 0.4126,-0.33007 0.8383,-0.5161 0.1135,-0.0496 0.2752,-0.12463 0.3594,-0.16681 0.2612,-0.13093 0.5691,-0.22221 0.9416,-0.27911 0.7184,-0.10978 1.5358,-0.0181 2.2988,0.25789 0.103,0.0372 0.4539,0.19387 0.5723,0.25548 0.4503,0.23424 0.8507,0.4985 1.0754,0.70984 0.1847,0.17371 0.2354,0.26621 0.1611,0.29442 -0.057,0.0216 -0.1283,-0.0221 -0.3581,-0.21941 -0.6124,-0.52518 -1.0908,-0.78409 -1.7567,-0.95052 -0.4014,-0.10036 -0.6675,-0.12427 -1.404,-0.12633 -0.5789,-10e-4 -0.6129,-4.1e-4 -0.772,0.0289 -0.2142,0.0394 -0.3286,0.0688 -0.5473,0.14073 -0.5417,0.17794 -0.8351,0.3156 -1.1095,0.52027 -0.2637,0.19683 -0.5117,0.51873 -0.5122,0.66464 -2e-4,0.0698 0.1225,0.2013 0.4125,0.44212 0.2723,0.22617 0.4686,0.49106 0.6588,0.88911 0.042,0.0875 0.1144,0.21821 0.1614,0.29065 0.047,0.0724 0.1,0.15958 0.1168,0.19369 0.073,0.14321 0.1987,0.61004 0.287,1.06011 0.216,1.1008 0.2901,1.41681 0.4552,1.94297 0.075,0.23931 0.1435,0.42605 0.2239,0.61217 0.1,0.23043 0.1621,0.36189 0.2752,0.5789 0.1311,0.25146 0.1658,0.33279 0.142,0.33261 -0.011,0 -0.03,-0.012 -0.052,-0.0265 -0.058,-0.038 -0.078,-0.0349 -0.066,0.01 0.011,0.0201 0.015,0.0386 0.021,0.0411 0.011,0.002 0.011,0.01 0.011,0.017 -0.012,0.019 0.1307,0.27945 0.245,0.44799 0.1843,0.27148 0.2194,0.33585 0.1956,0.35959 -0.011,0.0114 -0.167,0.0239 -0.24,0.0194 z m -1.6253,-2.45705 c 0.064,-0.0268 0.1041,-0.0831 0.099,-0.14064 0,-0.0372 -0.011,-0.0482 -0.033,-0.0515 -0.016,-0.002 -0.043,0.009 -0.059,0.0233 -0.016,0.0151 -0.034,0.0275 -0.041,0.0275 -0.011,0 -0.011,0.006 -0.011,0.0145 0,0.008 -0.012,0.0297 -0.027,0.0484 -0.015,0.0187 -0.027,0.048 -0.027,0.0654 0,0.0371 0.03,0.0412 0.098,0.0131 z m -1.7816,-1.63906 c 0.037,-0.0123 0.1206,-0.0476 0.1863,-0.0784 0.065,-0.0307 0.1251,-0.0565 0.1316,-0.0572 0.013,-10e-4 0.034,-0.0306 0.034,-0.0471 10e-5,-0.005 -0.013,-0.008 -0.03,-0.002 -0.017,0.004 -0.04,0.01 -0.049,0.0116 -0.011,0.002 -0.036,0.0107 -0.054,0.018 -0.018,0.008 -0.053,0.017 -0.073,0.0204 -0.1155,0.0182 -0.3382,0.12226 -0.3382,0.15785 0,0.0196 0.1041,0.008 0.1931,-0.0225 z m -0.1489,-6.68192 c 0.1125,-0.0578 0.1182,-0.0916 0.027,-0.15968 -0.028,-0.0208 -0.054,-0.0412 -0.058,-0.0453 0,-0.004 -0.021,-0.008 -0.04,-0.008 -0.026,4.1e-4 -0.037,0.0109 -0.049,0.0472 -0.011,0.0256 -0.016,0.0683 -0.016,0.0949 0,0.0486 0.027,0.0875 0.051,0.0725 0.011,-0.004 0.016,-0.002 0.022,0.005 0.011,0.0177 0.014,0.0173 0.064,-0.009 z m -0.4549,-0.0111 c 2e-4,-0.008 -0.011,-0.0154 -0.015,-0.0183 -0.011,-0.004 -0.013,7.7e-4 -0.011,0.013 0.011,0.0154 0.011,0.0154 -0.012,-1.7e-4 -0.013,-0.0107 -0.027,-0.0144 -0.032,-0.01 -0.012,0.0118 0.025,0.0355 0.047,0.0311 0.011,-10e-4 0.017,-0.009 0.018,-0.0163 z m -0.3233,-0.14492 c 0.011,-0.041 -0.083,-0.20428 -0.2134,-0.38671 -0.2006,-0.27889 -0.2353,-0.29549 -0.4885,-0.23366 -0.1672,0.0409 -0.2235,0.0628 -0.2533,0.0987 -0.027,0.0323 -0.02,0.0853 0.014,0.12245 0.031,0.0332 0.5874,0.32292 0.7565,0.394 0.1,0.0422 0.1771,0.0443 0.1845,0.005 z m 0.7423,-0.36465 c 0.016,-0.0107 0.015,-0.0244 -0.011,-0.12783 -0.033,-0.14424 -0.2064,-0.4407 -0.2911,-0.49722 -0.089,-0.0597 -0.1744,-0.0238 -0.1744,0.0736 0,0.0589 0.043,0.13212 0.1646,0.28181 0.045,0.0551 0.09,0.11191 0.102,0.12638 0.011,0.0145 0.047,0.0548 0.082,0.0898 0.058,0.0603 0.093,0.0752 0.1264,0.0534 z m -9.2767,8.41841 c -0.042,-0.13958 -0.015,-0.43996 0.067,-0.74948 0.089,-0.34008 0.1676,-0.62789 0.2122,-0.77852 0.025,-0.0842 0.1207,-0.44947 0.2132,-0.81178 0.316,-1.23892 0.4371,-1.65523 0.6523,-2.2424 0.027,-0.0732 0.059,-0.16302 0.073,-0.19962 0.02,-0.0567 0.1321,-0.34528 0.1928,-0.49905 0.011,-0.0257 0.042,-0.10647 0.069,-0.17966 0.027,-0.0732 0.055,-0.13876 0.061,-0.14572 0.011,-0.008 0.011,-0.0207 0.011,-0.0306 0,-0.0364 0.2776,-0.57418 0.3785,-0.73339 0.1063,-0.16714 0.1659,-0.24644 0.1667,-0.2204 0,0.0258 -0.1454,0.36747 -0.2786,0.65097 -0.05,0.10768 -0.2796,0.69797 -0.346,0.89164 -0.1884,0.54873 -0.4682,1.59086 -0.5326,1.98288 -0.015,0.0952 -0.033,0.19697 -0.041,0.22624 -0.017,0.0757 -0.029,0.15551 -0.088,0.5789 -0.026,0.18513 -0.047,0.2962 -0.07,0.35931 -0.1031,0.28824 -0.2186,0.56791 -0.3061,0.7427 -0.051,0.0997 -0.102,0.23243 -0.1412,0.36268 -0.034,0.11301 -0.089,0.27248 -0.1204,0.35439 -0.059,0.15237 -0.085,0.24346 -0.1123,0.41333 -0.011,0.0531 -0.021,0.0965 -0.027,0.0965 -0.011,0 -0.022,-0.031 -0.032,-0.069 z m 10.741,-0.17724 c 0.011,-0.011 0.013,-0.02 0.019,-0.02 0.011,0 0.012,-0.006 0.012,-0.0139 0,-0.0149 0.1759,-0.25041 0.2273,-0.30434 0.038,-0.0395 0.048,-0.0178 0.018,0.0389 -0.018,0.0364 -0.025,0.0395 -0.044,0.0244 -0.02,-0.0159 -0.02,-0.0151 2e-4,0.01 0.021,0.0255 0.021,0.0277 -0.011,0.044 -0.015,0.01 -0.025,0.0198 -0.021,0.0229 0.011,0.008 -0.1922,0.21893 -0.2057,0.21875 -0.011,-1.4e-4 -0.011,-0.01 0,-0.0201 z m 0.5994,-7.60362 c -0.013,-0.005 -0.078,-0.0603 -0.1435,-0.12216 -0.065,-0.0619 -0.158,-0.1489 -0.2053,-0.19325 -0.084,-0.0782 -0.086,-0.0825 -0.086,-0.14638 0,-0.13038 0.053,-0.27735 0.1287,-0.35853 0.013,-0.0147 0.04,-0.0476 0.058,-0.0732 0.087,-0.1241 0.2145,-0.25285 0.2505,-0.25285 0.035,0 0.05,0.0234 0.142,0.22624 0.1671,0.37088 0.1912,0.4072 0.2908,0.43907 0.049,0.0158 0.052,0.0184 0.044,0.0637 -0.016,0.0974 -0.2323,0.37168 -0.3243,0.41061 -0.046,0.0194 -0.1146,0.0223 -0.1543,0.008 z m 0.6696,-0.76631 c 0,-0.02 0.025,-0.0412 0.034,-0.0306 0.011,0.01 -0.011,0.0498 -0.023,0.0498 -0.011,0 -0.012,-0.009 -0.012,-0.0192 z m 0.6173,-1.23434 c -0.038,-0.0283 -0.2777,-0.24113 -0.3045,-0.26948 -0.011,-0.008 -0.055,-0.0498 -0.1052,-0.0935 -0.1176,-0.10175 -0.1357,-0.14321 -0.1471,-0.33977 -0.016,-0.28535 -0.034,-0.41238 -0.093,-0.65873 -0.1215,-0.50793 -0.2927,-1.04914 -0.3986,-1.2599 l -0.071,-0.14202 0.053,0.0188 c 0.1103,0.0389 0.2509,0.15877 0.4772,0.40648 0.07,0.0758 0.1836,0.1977 0.2544,0.27105 0.1579,0.16375 0.2052,0.22262 0.2229,0.27733 0.011,0.0233 0.023,0.11957 0.034,0.21398 0.012,0.0944 0.027,0.19621 0.032,0.22623 0.033,0.1541 0.095,0.57905 0.1279,0.89966 0.011,0.0475 0.012,0.0982 0.014,0.11248 0.012,0.0633 0.022,0.30005 0.013,0.33168 -0.011,0.0442 -0.056,0.0466 -0.1096,0.005 z m -4.9665,-0.084 c -0.025,-0.0107 -0.09,-0.053 -0.1464,-0.0942 -0.1471,-0.1077 -0.3827,-0.21926 -0.4822,-0.22827 -0.102,-0.01 -0.1249,0.008 -0.1143,0.0846 0.011,0.0488 0,0.0585 -0.025,0.0771 -0.04,0.0262 -0.1421,0.0276 -0.1903,0.002 -0.019,-0.0107 -0.051,-0.0344 -0.069,-0.0537 -0.03,-0.0323 -0.039,-0.0342 -0.1094,-0.0262 l -0.076,0.009 -0.117,-0.10972 c -0.064,-0.0603 -0.1767,-0.15841 -0.2497,-0.21792 -0.247,-0.20098 -0.2882,-0.25271 -0.2673,-0.33575 0.011,-0.019 0.061,-0.0895 0.1246,-0.15666 0.064,-0.0671 0.1458,-0.15748 0.1824,-0.20079 0.1974,-0.23363 0.233,-0.25891 0.3628,-0.2583 l 0.083,4.1e-4 -0.011,0.0748 c -0.011,0.0411 -0.011,0.0799 -0.014,0.0861 -0.011,0.006 -0.011,0.0492 -0.011,0.0955 0,0.0957 0.026,0.16972 0.1397,0.41472 0.076,0.16359 0.085,0.20226 0.061,0.28501 -0.027,0.0958 -0.028,0.13342 -0.011,0.14107 0.032,0.0124 0.084,-0.0324 0.2131,-0.18617 0.1524,-0.18117 0.1719,-0.1994 0.2493,-0.23371 0.056,-0.0247 0.097,-0.0672 0.064,-0.0672 -0.025,0 -0.014,-0.10174 0.015,-0.13793 0.039,-0.049 0.073,-0.044 0.1578,0.023 0.08,0.0623 0.1508,0.10175 0.2303,0.12746 0.027,0.009 0.053,0.0218 0.058,0.0286 0.011,0.015 -0.032,0.0846 -0.095,0.16 -0.025,0.0299 -0.049,0.0703 -0.054,0.0897 -0.011,0.0194 -0.015,0.0431 -0.023,0.0528 -0.011,0.01 -0.014,0.0736 -0.015,0.14195 0,0.10647 0,0.12978 0.027,0.16207 0.056,0.0746 0.088,0.0839 0.3031,0.0851 0.144,7.8e-4 0.1949,0.005 0.1915,0.0167 -0.011,0.0201 -0.257,0.14986 -0.3097,0.16018 -0.023,0.004 -0.058,-4e-4 -0.084,-0.0115 z m 2.288,-0.81654 c -0.032,-0.0213 -0.011,-0.0773 0.077,-0.1614 0.08,-0.0818 0.128,-0.10089 0.1427,-0.0567 0.011,0.0128 0.025,0.0605 0.045,0.10614 l 0.038,0.0829 -0.049,0.0126 c -0.078,0.0199 -0.2336,0.0299 -0.254,0.0164 z m -1.9307,-0.19811 c 3e-4,-0.005 0.011,-0.025 0.019,-0.0432 0.029,-0.05 0.025,-0.12269 -0.011,-0.17437 -0.017,-0.0259 -0.093,-0.0863 -0.1764,-0.14109 -0.1993,-0.13087 -0.2193,-0.14745 -0.2193,-0.18281 0,-0.0499 0.048,-0.098 0.1102,-0.11026 0.053,-0.0107 0.064,-0.006 0.1818,0.0584 0.07,0.0382 0.1305,0.0665 0.1364,0.0628 0.011,-0.004 0.011,-4.1e-4 0.011,0.008 0,0.008 0.018,0.0141 0.04,0.0141 0.022,0 0.04,-0.006 0.04,-0.0133 0,-0.008 0.011,-0.0118 0.014,-0.01 0.011,10e-4 0.024,-0.0123 0.035,-0.0313 0.033,-0.0529 0.013,-0.10357 -0.077,-0.19983 -0.1076,-0.1144 -0.1445,-0.17412 -0.1445,-0.23362 0,-0.0449 0.011,-0.0665 0.033,-0.0919 0.04,-0.0397 0.048,-0.0365 0.1695,0.0645 0.161,0.13379 0.1913,0.19151 0.1724,0.32807 -0.014,0.0998 0,0.15694 0.051,0.28219 0.047,0.10722 0.041,0.13265 -0.043,0.20172 -0.069,0.0559 -0.3178,0.22257 -0.333,0.22257 -0.011,0 -0.011,-0.004 -0.011,-0.01 z m 2.2087,-0.46769 c -0.032,-0.009 -0.033,-0.0155 -0.048,-0.17154 -0.011,-0.0893 -0.018,-0.17698 -0.024,-0.1949 -0.014,-0.0561 0.019,-0.0562 0.069,-4e-4 0.1062,0.12306 0.1558,0.29412 0.1019,0.35341 -0.024,0.0263 -0.043,0.0289 -0.099,0.0133 z m -3.6424,-0.10347 c -0.013,-0.0332 0.022,-0.18123 0.063,-0.26909 0.023,-0.0482 0.064,-0.11847 0.092,-0.15618 0.057,-0.075 0.1461,-0.16442 0.1649,-0.1646 0.011,-6e-5 0.011,0.0304 0,0.0698 -0.011,0.0384 -0.014,0.11746 -0.018,0.17564 l -0.011,0.10583 -0.07,0.054 c -0.039,0.0296 -0.092,0.0808 -0.1179,0.11381 -0.027,0.033 -0.054,0.0582 -0.061,0.056 -0.011,-0.002 -0.011,0.004 -0.011,0.0144 0.011,0.0107 0,0.0184 -0.013,0.0184 -0.011,0 -0.023,-0.008 -0.027,-0.0178 z m 2.9514,-0.0956 c -0.011,-0.0148 -0.014,-0.0366 -0.014,-0.0485 0,-0.013 -0.011,-0.0178 -0.015,-0.0121 -0.011,0.006 -0.012,0.004 -0.011,-0.006 0.015,-0.0238 0.021,-0.019 0.043,0.0326 0.022,0.052 0.016,0.0776 -0.011,0.0338 z m -1.6336,-0.73183 c -0.055,-0.0282 -0.3043,-0.24997 -0.398,-0.35283 -0.1371,-0.15033 -0.1624,-0.21627 -0.2321,-0.60277 -0.1041,-0.57446 -0.092,-0.52969 -0.26,-1.0442 -0.087,-0.26527 -0.102,-0.33456 -0.1449,-0.65953 -0.053,-0.39774 -0.056,-0.43025 -0.027,-0.43025 0.034,0 0.1441,0.0891 0.2577,0.20892 0.054,0.0571 0.1979,0.20768 0.3194,0.33461 0.1216,0.12695 0.2345,0.2527 0.251,0.27948 0.041,0.0666 0.056,0.12642 0.076,0.31468 0.011,0.0888 0.035,0.2569 0.058,0.37357 0.021,0.11667 0.049,0.2707 0.062,0.34228 0.018,0.10614 0.03,0.14265 0.069,0.19773 l 0.047,0.0676 -0.03,0.0939 -0.03,0.0939 0.03,0.28726 c 0.033,0.32689 0.037,0.48346 0.013,0.504 -0.012,0.01 -0.029,0.008 -0.059,-0.009 z m 0.8521,-0.73978 c -0.064,-0.0201 -0.2018,-0.1011 -0.2363,-0.13918 -0.024,-0.0258 -0.023,-0.0266 0.02,-0.0338 0.086,-0.0144 0.2045,-0.0175 0.2344,-0.006 0.035,0.0131 0.057,0.0607 0.066,0.14163 0.011,0.0636 0,0.0652 -0.085,0.0375 z m -7.8441,-0.62914 c -0.03,-0.0775 0.011,-0.16863 0.1662,-0.41383 0.048,-0.0743 0.088,-0.13838 0.088,-0.14259 0,-0.009 0.3657,-0.55598 0.3989,-0.59715 0.011,-0.0141 0.031,-0.0366 0.044,-0.05 0.013,-0.0135 0.024,-0.0283 0.024,-0.0328 0,-0.0122 0.081,-0.10207 0.1107,-0.12368 0.025,-0.0175 0.026,-0.0165 0.018,0.0148 -0.016,0.0617 -0.1314,0.25335 -0.3706,0.61305 -0.1649,0.24803 -0.2677,0.41887 -0.3386,0.56227 -0.056,0.11328 -0.1074,0.20598 -0.1136,0.20598 -0.011,0 -0.018,-0.0162 -0.026,-0.0361 z m 5.7136,-1.80755 c -0.029,-0.0203 -0.061,-0.10679 -0.049,-0.12812 0.022,-0.0335 0.1123,0.0184 0.1454,0.0824 0.018,0.0355 0.018,0.0394 -0.011,0.0522 -0.035,0.019 -0.056,0.0174 -0.09,-0.006 z m -1.7163,-0.13747 c -0.035,-0.0282 -0.082,-0.0716 -0.103,-0.0965 -0.022,-0.0248 -0.078,-0.0901 -0.1278,-0.14494 -0.1919,-0.2129 -0.2973,-0.34281 -0.3468,-0.42759 -0.041,-0.0708 -0.062,-0.0924 -0.1042,-0.10943 -0.058,-0.0234 -0.1701,-0.0309 -0.2371,-0.0161 -0.025,0.005 -0.063,0.003 -0.091,-0.006 l -0.048,-0.0161 0.044,-0.0183 c 0.035,-0.0148 0.1331,-0.0434 0.2199,-0.0642 0.011,-10e-4 0.023,-0.008 0.033,-0.011 0.011,-0.004 0.1389,-0.0328 0.2841,-0.0634 0.2252,-0.0474 0.2811,-0.0547 0.3793,-0.0499 0.1178,0.006 0.2209,0.0395 0.2112,0.069 0,0.009 -0.044,0.0221 -0.09,0.031 -0.047,0.009 -0.1364,0.0258 -0.1987,0.0375 -0.1242,0.0233 -0.1764,0.0479 -0.2166,0.10164 -0.036,0.0495 -0.025,0.0829 0.077,0.21855 0.047,0.0631 0.093,0.12768 0.102,0.14335 0.011,0.0157 0.018,0.0316 0.024,0.0352 0.013,0.01 0.22,0.30763 0.2386,0.34268 0.011,0.0164 0.013,0.0299 0.011,0.0299 -0.011,0 0,0.01 0.013,0.0209 0.024,0.0232 0.027,0.0456 0.011,0.0456 -0.011,0 -0.041,-0.0232 -0.077,-0.0514 z m -1.0694,-0.0323 c -0.1633,-0.28768 -0.2047,-0.38872 -0.1594,-0.38872 0.03,0 0.09,0.10926 0.1534,0.27814 0.059,0.15901 0.061,0.20918 0.011,0.11058 z"
       id="path223"
       inkscape:connector-curvature="0" />
  </g>
</svg>
